<mxfile host="app.diagrams.net" modified="2023-07-31T05:10:26.967Z" agent="Mozilla/5.0 (X11; Linux x86_64) AppleWebKit/537.36 (KHTML, like Gecko) Chrome/113.0.0.0 Safari/537.36" etag="nseOosk8g-xT7g_aKoEt" version="21.6.1" type="device">
  <diagram name="페이지-1" id="1hVFtwvs_9iIUo5fotbq">
    <mxGraphModel dx="1434" dy="802" grid="1" gridSize="10" guides="1" tooltips="1" connect="1" arrows="1" fold="1" page="1" pageScale="1" pageWidth="827" pageHeight="1169" math="0" shadow="0">
      <root>
        <mxCell id="0" />
        <mxCell id="1" parent="0" />
        <mxCell id="OHwMjh5aGj7V_LPaY3qD-33" value="" style="group" vertex="1" connectable="0" parent="1">
          <mxGeometry x="320" y="280" width="320" height="320" as="geometry" />
        </mxCell>
        <mxCell id="OHwMjh5aGj7V_LPaY3qD-1" value="" style="endArrow=classic;html=1;rounded=0;" edge="1" parent="OHwMjh5aGj7V_LPaY3qD-33">
          <mxGeometry width="50" height="50" relative="1" as="geometry">
            <mxPoint y="159.5" as="sourcePoint" />
            <mxPoint x="320" y="159.5" as="targetPoint" />
          </mxGeometry>
        </mxCell>
        <mxCell id="OHwMjh5aGj7V_LPaY3qD-2" value="" style="endArrow=classic;html=1;rounded=0;" edge="1" parent="OHwMjh5aGj7V_LPaY3qD-33">
          <mxGeometry width="50" height="50" relative="1" as="geometry">
            <mxPoint x="159.5" y="320" as="sourcePoint" />
            <mxPoint x="159.5" as="targetPoint" />
          </mxGeometry>
        </mxCell>
        <mxCell id="OHwMjh5aGj7V_LPaY3qD-10" value="" style="ellipse;whiteSpace=wrap;html=1;aspect=fixed;" vertex="1" parent="OHwMjh5aGj7V_LPaY3qD-33">
          <mxGeometry x="230" y="150" width="20" height="20" as="geometry" />
        </mxCell>
        <mxCell id="OHwMjh5aGj7V_LPaY3qD-11" value="" style="ellipse;whiteSpace=wrap;html=1;aspect=fixed;" vertex="1" parent="OHwMjh5aGj7V_LPaY3qD-33">
          <mxGeometry x="190" y="150" width="20" height="20" as="geometry" />
        </mxCell>
        <mxCell id="OHwMjh5aGj7V_LPaY3qD-12" value="" style="ellipse;whiteSpace=wrap;html=1;aspect=fixed;" vertex="1" parent="OHwMjh5aGj7V_LPaY3qD-33">
          <mxGeometry x="150" y="150" width="20" height="20" as="geometry" />
        </mxCell>
        <mxCell id="OHwMjh5aGj7V_LPaY3qD-13" value="" style="ellipse;whiteSpace=wrap;html=1;aspect=fixed;" vertex="1" parent="OHwMjh5aGj7V_LPaY3qD-33">
          <mxGeometry x="110" y="150" width="20" height="20" as="geometry" />
        </mxCell>
        <mxCell id="OHwMjh5aGj7V_LPaY3qD-14" value="0" style="ellipse;whiteSpace=wrap;html=1;aspect=fixed;fillColor=#f8cecc;strokeColor=#b85450;" vertex="1" parent="OHwMjh5aGj7V_LPaY3qD-33">
          <mxGeometry x="70" y="150" width="20" height="20" as="geometry" />
        </mxCell>
        <mxCell id="OHwMjh5aGj7V_LPaY3qD-16" value="" style="ellipse;whiteSpace=wrap;html=1;aspect=fixed;" vertex="1" parent="OHwMjh5aGj7V_LPaY3qD-33">
          <mxGeometry x="190" y="110" width="20" height="20" as="geometry" />
        </mxCell>
        <mxCell id="OHwMjh5aGj7V_LPaY3qD-17" value="" style="ellipse;whiteSpace=wrap;html=1;aspect=fixed;" vertex="1" parent="OHwMjh5aGj7V_LPaY3qD-33">
          <mxGeometry x="150" y="110" width="20" height="20" as="geometry" />
        </mxCell>
        <mxCell id="OHwMjh5aGj7V_LPaY3qD-18" value="" style="ellipse;whiteSpace=wrap;html=1;aspect=fixed;" vertex="1" parent="OHwMjh5aGj7V_LPaY3qD-33">
          <mxGeometry x="110" y="110" width="20" height="20" as="geometry" />
        </mxCell>
        <mxCell id="OHwMjh5aGj7V_LPaY3qD-21" value="" style="ellipse;whiteSpace=wrap;html=1;aspect=fixed;" vertex="1" parent="OHwMjh5aGj7V_LPaY3qD-33">
          <mxGeometry x="150" y="70" width="20" height="20" as="geometry" />
        </mxCell>
        <mxCell id="OHwMjh5aGj7V_LPaY3qD-25" value="" style="ellipse;whiteSpace=wrap;html=1;aspect=fixed;" vertex="1" parent="OHwMjh5aGj7V_LPaY3qD-33">
          <mxGeometry x="190" y="190" width="20" height="20" as="geometry" />
        </mxCell>
        <mxCell id="OHwMjh5aGj7V_LPaY3qD-26" value="" style="ellipse;whiteSpace=wrap;html=1;aspect=fixed;" vertex="1" parent="OHwMjh5aGj7V_LPaY3qD-33">
          <mxGeometry x="150" y="190" width="20" height="20" as="geometry" />
        </mxCell>
        <mxCell id="OHwMjh5aGj7V_LPaY3qD-27" value="2" style="ellipse;whiteSpace=wrap;html=1;aspect=fixed;" vertex="1" parent="OHwMjh5aGj7V_LPaY3qD-33">
          <mxGeometry x="110" y="190" width="20" height="20" as="geometry" />
        </mxCell>
        <mxCell id="OHwMjh5aGj7V_LPaY3qD-30" value="1" style="ellipse;whiteSpace=wrap;html=1;aspect=fixed;" vertex="1" parent="OHwMjh5aGj7V_LPaY3qD-33">
          <mxGeometry x="150" y="230" width="20" height="20" as="geometry" />
        </mxCell>
      </root>
    </mxGraphModel>
  </diagram>
</mxfile>
